<svg xmlns="http://www.w3.org/2000/svg" xmlns:xlink="http://www.w3.org/1999/xlink"  zoomAndPan="magnify" viewBox="0 0 375 374.999991"  preserveAspectRatio="xMidYMid meet" version="1.0"><defs><g/><clipPath id="55ea7bfe39"><path d="M 225 125.402344 L 351 125.402344 L 351 243 L 225 243 Z M 225 125.402344 " clip-rule="nonzero"/></clipPath><clipPath id="47ca94d9b5"><path d="M 304.078125 249.007812 L 343 249.007812 L 343 287.402344 L 304.078125 287.402344 Z M 304.078125 249.007812 " clip-rule="nonzero"/></clipPath></defs><path fill="#ffffff" d="M 288.078125 202.214844 C 287.125 202.214844 286.355469 201.445312 286.355469 200.492188 L 286.355469 188.136719 C 286.355469 187.183594 287.125 186.414062 288.078125 186.414062 C 289.027344 186.414062 289.796875 187.183594 289.796875 188.136719 L 289.796875 200.492188 C 289.796875 201.445312 289.027344 202.214844 288.078125 202.214844 " fill-opacity="1" fill-rule="nonzero"/><path fill="#ffffff" d="M 288.078125 164.03125 C 287.125 164.03125 286.355469 163.261719 286.355469 162.3125 L 286.355469 134.988281 C 286.355469 134.035156 287.125 133.265625 288.078125 133.265625 C 289.027344 133.265625 289.796875 134.035156 289.796875 134.988281 L 289.796875 162.3125 C 289.796875 163.261719 289.027344 164.03125 288.078125 164.03125 " fill-opacity="1" fill-rule="nonzero"/><path fill="#ffffff" d="M 288.078125 189.859375 C 287.125 189.859375 286.355469 189.089844 286.355469 188.136719 L 286.355469 170.101562 C 286.355469 169.152344 287.125 168.378906 288.078125 168.378906 C 289.027344 168.378906 289.796875 169.152344 289.796875 170.101562 L 289.796875 188.136719 C 289.796875 189.089844 289.027344 189.859375 288.078125 189.859375 " fill-opacity="1" fill-rule="nonzero"/><path fill="#ffffff" d="M 311.753906 157.25 C 311.113281 157.25 310.496094 156.890625 310.199219 156.273438 C 306.742188 149.046875 302.136719 142.476562 296.511719 136.742188 C 295.84375 136.066406 295.855469 134.976562 296.535156 134.308594 C 297.210938 133.640625 298.300781 133.652344 298.96875 134.332031 C 304.863281 140.335938 309.6875 147.21875 313.308594 154.785156 C 313.71875 155.644531 313.355469 156.671875 312.496094 157.082031 C 312.257812 157.199219 312.003906 157.25 311.753906 157.25 " fill-opacity="1" fill-rule="nonzero"/><path fill="#ffffff" d="M 317.777344 175.648438 C 316.96875 175.648438 316.246094 175.074219 316.085938 174.25 C 315.363281 170.433594 314.328125 166.65625 313.019531 163.015625 C 312.695312 162.121094 313.160156 161.132812 314.054688 160.808594 C 314.949219 160.488281 315.933594 160.949219 316.261719 161.847656 C 317.632812 165.65625 318.714844 169.613281 319.472656 173.605469 C 319.652344 174.542969 319.035156 175.441406 318.101562 175.621094 C 317.992188 175.640625 317.882812 175.648438 317.777344 175.648438 " fill-opacity="1" fill-rule="nonzero"/><path fill="#ffffff" d="M 314.511719 215.914062 C 314.316406 215.914062 314.117188 215.878906 313.921875 215.808594 C 313.027344 215.480469 312.566406 214.492188 312.898438 213.597656 C 315.878906 205.445312 317.390625 196.878906 317.390625 188.136719 C 317.390625 186.324219 317.324219 184.488281 317.191406 182.6875 C 317.125 181.738281 317.835938 180.914062 318.785156 180.84375 C 319.734375 180.773438 320.558594 181.488281 320.628906 182.4375 C 320.769531 184.320312 320.839844 186.238281 320.839844 188.136719 C 320.839844 197.28125 319.253906 206.246094 316.132812 214.78125 C 315.875 215.480469 315.214844 215.914062 314.511719 215.914062 " fill-opacity="1" fill-rule="nonzero"/><path fill="#ffffff" d="M 264.398438 157.25 C 264.148438 157.25 263.894531 157.199219 263.65625 157.082031 C 262.796875 156.671875 262.433594 155.644531 262.84375 154.785156 C 266.464844 147.21875 271.289062 140.335938 277.183594 134.332031 C 277.851562 133.652344 278.9375 133.640625 279.621094 134.308594 C 280.296875 134.976562 280.308594 136.066406 279.640625 136.742188 C 274.015625 142.476562 269.410156 149.046875 265.953125 156.273438 C 265.65625 156.890625 265.039062 157.25 264.398438 157.25 " fill-opacity="1" fill-rule="nonzero"/><path fill="#ffffff" d="M 258.378906 175.625 C 258.273438 175.625 258.164062 175.613281 258.054688 175.59375 C 257.121094 175.417969 256.507812 174.515625 256.683594 173.578125 C 257.445312 169.59375 258.523438 165.648438 259.890625 161.847656 C 260.21875 160.953125 261.203125 160.488281 262.097656 160.808594 C 262.992188 161.132812 263.457031 162.121094 263.132812 163.015625 C 261.824219 166.644531 260.792969 170.417969 260.070312 174.226562 C 259.914062 175.050781 259.191406 175.625 258.378906 175.625 " fill-opacity="1" fill-rule="nonzero"/><path fill="#ffffff" d="M 261.640625 215.917969 C 260.941406 215.917969 260.28125 215.484375 260.023438 214.785156 C 256.898438 206.25 255.3125 197.285156 255.3125 188.136719 C 255.3125 186.238281 255.386719 184.320312 255.523438 182.4375 C 255.59375 181.488281 256.425781 180.773438 257.367188 180.84375 C 258.316406 180.914062 259.027344 181.738281 258.960938 182.6875 C 258.828125 184.488281 258.761719 186.324219 258.761719 188.136719 C 258.761719 196.878906 260.273438 205.449219 263.257812 213.601562 C 263.585938 214.496094 263.125 215.484375 262.234375 215.8125 C 262.035156 215.882812 261.835938 215.917969 261.640625 215.917969 " fill-opacity="1" fill-rule="nonzero"/><path fill="#ffffff" d="M 288.078125 150.949219 L 288.074219 150.949219 C 277.390625 150.949219 266.9375 148.957031 257.007812 145.035156 C 256.121094 144.6875 255.6875 143.683594 256.039062 142.800781 C 256.386719 141.914062 257.386719 141.480469 258.273438 141.832031 C 267.796875 145.59375 277.824219 147.503906 288.074219 147.503906 L 288.078125 147.503906 C 298.324219 147.503906 308.351562 145.59375 317.875 141.832031 C 318.761719 141.480469 319.761719 141.914062 320.109375 142.800781 C 320.460938 143.683594 320.027344 144.6875 319.140625 145.035156 C 309.214844 148.957031 298.757812 150.949219 288.078125 150.949219 " fill-opacity="1" fill-rule="nonzero"/><g clip-path="url(#55ea7bfe39)"><path fill="#ffffff" d="M 256.597656 242.035156 C 256.292969 242.035156 255.988281 241.957031 255.707031 241.785156 C 246.640625 236.304688 239.050781 228.558594 233.761719 219.382812 C 228.308594 209.921875 225.425781 199.117188 225.425781 188.136719 C 225.425781 153.59375 253.53125 125.484375 288.078125 125.484375 C 322.621094 125.484375 350.726562 153.59375 350.726562 188.136719 C 350.726562 199.117188 347.84375 209.921875 342.390625 219.378906 C 337.101562 228.554688 329.515625 236.300781 320.453125 241.785156 C 319.640625 242.273438 318.578125 242.015625 318.085938 241.199219 C 317.59375 240.386719 317.851562 239.328125 318.667969 238.835938 C 336.582031 228 347.28125 209.046875 347.28125 188.136719 C 347.28125 155.492188 320.722656 128.933594 288.078125 128.933594 C 255.429688 128.933594 228.871094 155.492188 228.871094 188.136719 C 228.871094 209.050781 239.570312 228.003906 257.492188 238.839844 C 258.304688 239.332031 258.566406 240.390625 258.074219 241.203125 C 257.75 241.742188 257.179688 242.035156 256.597656 242.035156 " fill-opacity="1" fill-rule="nonzero"/></g><path fill="#ffffff" d="M 329.957031 189.859375 L 246.195312 189.859375 C 245.242188 189.859375 244.472656 189.089844 244.472656 188.136719 C 244.472656 187.183594 245.242188 186.414062 246.195312 186.414062 L 329.957031 186.414062 C 330.910156 186.414062 331.683594 187.183594 331.683594 188.136719 C 331.683594 189.089844 330.910156 189.859375 329.957031 189.859375 " fill-opacity="1" fill-rule="nonzero"/><path fill="#ffffff" d="M 228.070312 227.507812 C 214.800781 227.507812 206.535156 224.445312 204.402344 218.589844 C 201.179688 209.726562 212.820312 199.046875 223.15625 191.648438 C 237.199219 181.589844 257.082031 171.625 279.144531 163.597656 C 301.203125 155.566406 322.839844 150.417969 340.066406 149.09375 C 352.738281 148.121094 368.523438 148.820312 371.75 157.683594 C 374.453125 165.113281 366.699219 175.441406 349.914062 186.769531 C 349.125 187.304688 348.054688 187.09375 347.523438 186.304688 C 346.992188 185.515625 347.195312 184.445312 347.988281 183.914062 C 362.886719 173.855469 370.5625 164.492188 368.511719 158.859375 C 366.628906 153.6875 356.09375 151.320312 340.328125 152.527344 C 323.410156 153.828125 302.097656 158.910156 280.320312 166.835938 C 258.550781 174.761719 238.957031 184.566406 225.160156 194.445312 C 212.304688 203.652344 205.757812 212.238281 207.640625 217.414062 C 209.691406 223.042969 221.589844 225.285156 239.46875 223.410156 C 240.410156 223.3125 241.261719 224 241.359375 224.945312 C 241.460938 225.890625 240.773438 226.738281 239.828125 226.835938 C 235.5625 227.285156 231.632812 227.507812 228.070312 227.507812 " fill-opacity="1" fill-rule="nonzero"/><path fill="#ffffff" d="M 348.085938 227.507812 C 344.519531 227.507812 340.59375 227.285156 336.324219 226.835938 C 335.378906 226.738281 334.691406 225.890625 334.792969 224.945312 C 334.890625 224 335.738281 223.3125 336.683594 223.410156 C 354.5625 225.285156 366.460938 223.042969 368.511719 217.414062 C 370.394531 212.238281 363.847656 203.652344 350.992188 194.445312 C 337.195312 184.566406 317.601562 174.761719 295.832031 166.835938 C 274.054688 158.910156 252.742188 153.828125 235.824219 152.527344 C 220.0625 151.320312 209.523438 153.683594 207.640625 158.859375 C 205.589844 164.492188 213.265625 173.859375 228.167969 183.914062 C 228.957031 184.449219 229.164062 185.515625 228.632812 186.304688 C 228.097656 187.09375 227.027344 187.304688 226.238281 186.769531 C 209.453125 175.441406 201.699219 165.113281 204.402344 157.683594 C 207.628906 148.820312 223.414062 148.121094 236.085938 149.09375 C 253.3125 150.417969 274.949219 155.566406 297.007812 163.597656 C 319.070312 171.625 338.953125 181.589844 352.996094 191.648438 C 363.332031 199.046875 374.972656 209.726562 371.75 218.589844 C 369.617188 224.445312 361.347656 227.507812 348.085938 227.507812 " fill-opacity="1" fill-rule="nonzero"/><g clip-path="url(#47ca94d9b5)"><path fill="#ffffff" d="M 334.722656 287.597656 C 332.640625 287.597656 330.5625 286.808594 328.980469 285.226562 L 304.761719 261.007812 C 304.085938 260.335938 304.085938 259.242188 304.761719 258.570312 C 305.433594 257.898438 306.523438 257.898438 307.195312 258.570312 L 331.414062 282.789062 C 333.238281 284.613281 336.203125 284.613281 338.027344 282.789062 C 338.910156 281.90625 339.394531 280.730469 339.394531 279.484375 C 339.394531 278.234375 338.910156 277.058594 338.027344 276.175781 L 313.808594 251.957031 C 313.136719 251.285156 313.136719 250.195312 313.808594 249.523438 C 314.480469 248.847656 315.574219 248.847656 316.246094 249.523438 L 340.460938 273.738281 C 342 275.273438 342.84375 277.316406 342.84375 279.484375 C 342.84375 281.652344 342 283.691406 340.460938 285.226562 C 338.882812 286.808594 336.800781 287.597656 334.722656 287.597656 " fill-opacity="1" fill-rule="nonzero"/></g><path fill="#ffffff" d="M 288.078125 276.753906 C 269.152344 276.753906 252.40625 264.679688 246.410156 246.710938 C 246.109375 245.808594 246.59375 244.835938 247.496094 244.53125 C 248.398438 244.230469 249.375 244.71875 249.675781 245.621094 C 255.203125 262.183594 270.636719 273.308594 288.078125 273.308594 C 289.03125 273.308594 289.800781 274.082031 289.800781 275.03125 C 289.800781 275.984375 289.03125 276.753906 288.078125 276.753906 " fill-opacity="1" fill-rule="nonzero"/><path fill="#ffffff" d="M 288.078125 202.214844 C 271.191406 202.214844 257.453125 215.953125 257.453125 232.839844 C 257.453125 249.726562 271.191406 263.464844 288.078125 263.464844 C 304.96875 263.464844 318.703125 249.726562 318.703125 232.839844 C 318.703125 215.953125 304.96875 202.214844 288.078125 202.214844 Z M 288.078125 266.910156 C 269.289062 266.910156 254.007812 251.625 254.007812 232.839844 C 254.007812 214.054688 269.289062 198.769531 288.078125 198.769531 C 306.863281 198.769531 322.152344 214.054688 322.152344 232.839844 C 322.152344 251.625 306.863281 266.910156 288.078125 266.910156 " fill-opacity="1" fill-rule="nonzero"/><path fill="#ffffff" d="M 264.304688 228.746094 C 264.171875 228.746094 264.03125 228.730469 263.894531 228.699219 C 262.96875 228.46875 262.40625 227.539062 262.632812 226.613281 C 264.367188 219.519531 269.050781 213.417969 275.476562 209.878906 C 276.3125 209.421875 277.359375 209.722656 277.816406 210.554688 C 278.277344 211.390625 277.972656 212.4375 277.140625 212.898438 C 271.554688 215.976562 267.484375 221.273438 265.976562 227.433594 C 265.785156 228.21875 265.082031 228.746094 264.304688 228.746094 " fill-opacity="1" fill-rule="nonzero"/><path fill="#ffffff" d="M 288.078125 242.976562 C 287.128906 242.976562 286.355469 242.203125 286.355469 241.253906 L 286.355469 240.429688 C 286.355469 236.5 288.269531 232.941406 291.472656 230.910156 C 293.433594 229.671875 294.558594 227.457031 294.417969 225.136719 C 294.222656 222.007812 291.617188 219.402344 288.488281 219.207031 C 286.707031 219.097656 285.019531 219.703125 283.730469 220.917969 C 282.441406 222.128906 281.726562 223.773438 281.726562 225.542969 C 281.726562 226.496094 280.957031 227.265625 280.007812 227.265625 C 279.054688 227.265625 278.285156 226.496094 278.285156 225.542969 C 278.285156 222.851562 279.410156 220.25 281.371094 218.40625 C 283.363281 216.535156 285.96875 215.597656 288.703125 215.769531 C 293.613281 216.074219 297.550781 220.007812 297.855469 224.921875 C 298.074219 228.496094 296.335938 231.90625 293.316406 233.820312 C 291.148438 235.195312 289.800781 237.726562 289.800781 240.429688 L 289.800781 241.253906 C 289.800781 242.203125 289.03125 242.976562 288.078125 242.976562 " fill-opacity="1" fill-rule="nonzero"/><path fill="#ffffff" d="M 288.078125 249.933594 C 287.128906 249.933594 286.355469 249.160156 286.355469 248.210938 L 286.355469 247.351562 C 286.355469 246.398438 287.128906 245.628906 288.078125 245.628906 C 289.03125 245.628906 289.800781 246.398438 289.800781 247.351562 L 289.800781 248.210938 C 289.800781 249.160156 289.03125 249.933594 288.078125 249.933594 " fill-opacity="1" fill-rule="nonzero"/><path stroke-linecap="butt" transform="matrix(1.355484, 0, 0, 1.355484, 8.984132, 88.280699)" fill="none" stroke-linejoin="miter" d="M 49.302213 55.996888 C 47.29359 54.786528 45.215804 53.717375 43.074618 52.783668 C 41.276368 51.982525 39.250454 51.233254 36.996877 50.530092 C 34.75771 49.82693 32.567533 49.475349 30.426347 49.475349 C 28.691496 49.475349 27.302463 49.743357 26.256365 50.285138 C 25.227559 50.806746 24.711714 51.705871 24.711714 52.979632 C 24.711714 53.927748 25.005659 54.705837 25.596431 55.311017 C 26.198729 55.898907 27.0748 56.446451 28.218879 56.95365 C 29.362958 57.457967 30.751992 57.950757 32.385979 58.423374 C 34.019966 58.881582 35.875853 59.446417 37.950757 60.114997 C 41.236022 61.112104 44.204288 62.215838 46.849791 63.426199 C 49.498176 64.633678 51.754635 66.065938 53.619167 67.714335 C 55.498108 69.351204 56.936132 71.336772 57.933239 73.673921 C 58.944755 76.01107 59.451954 78.855418 59.451954 82.204083 C 59.451954 86.486456 58.659456 90.091602 57.074459 93.016641 C 55.506754 95.92727 53.428967 98.255774 50.846864 100.005034 C 48.282052 101.737003 45.371422 102.987709 42.120739 103.754271 C 38.884464 104.523715 35.622253 104.906996 32.336988 104.906996 C 29.723185 104.906996 27.0431 104.702387 24.296734 104.29317 C 21.550367 103.901243 18.821291 103.33929 16.106625 102.601546 C 13.409249 101.866684 10.804091 101.002141 8.285388 100.005034 C 5.769567 98.990636 3.441063 97.846557 1.299877 96.572796 L 9.732058 79.385672 C 12.086498 80.872686 14.530274 82.181029 17.063386 83.307817 C 19.204572 84.322215 21.631058 85.227104 24.345724 86.028247 C 27.057509 86.829391 29.821166 87.229963 32.630933 87.229963 C 34.772119 87.229963 36.259134 86.944664 37.094859 86.371183 C 37.942112 85.800584 38.36862 85.048432 38.36862 84.117606 C 38.36862 83.1205 37.942112 82.270365 37.094859 81.567203 C 36.259134 80.864041 35.106409 80.244452 33.636685 79.702671 C 32.166961 79.163772 30.475338 78.624873 28.561815 78.085975 C 26.665583 77.547076 24.648315 76.910195 22.507129 76.172452 C 19.351545 75.111945 16.631115 73.95922 14.342956 72.71716 C 12.069207 71.475099 10.198911 70.068775 8.729187 68.501069 C 7.256581 66.930482 6.170138 65.140877 5.466976 63.132254 C 4.763814 61.12075 4.412233 58.806655 4.412233 56.192852 C 4.412233 52.253415 5.132686 48.780832 6.57071 45.772221 C 8.008734 42.7492 9.962602 40.233379 12.429433 38.221874 C 14.913555 36.21037 17.749258 34.691655 20.936541 33.662848 C 24.123825 32.616751 27.492663 32.092261 31.037291 32.092261 C 33.636685 32.092261 36.178443 32.34586 38.662565 32.853059 C 41.146686 33.360258 43.541472 33.997138 45.846921 34.7637 C 48.149488 35.533144 50.307965 36.374633 52.31947 37.291049 C 54.328093 38.190174 56.134989 39.040309 57.737276 39.841452 Z M 132.134125 86.936018 L 132.134125 103.999225 L 81.336431 103.999225 L 81.336431 32.706087 L 131.252291 32.706087 L 131.252291 49.769293 L 100.924105 49.769293 L 100.924105 59.821052 L 126.814301 59.821052 L 126.814301 75.682544 L 100.924105 75.682544 L 100.924105 86.936018 Z M 132.134125 86.936018 " stroke="#ffffff" stroke-width="2.5106" stroke-opacity="1" stroke-miterlimit="4"/><g fill="#ffffff" fill-opacity="1"><g transform="translate(14.54166, 277.581004)"><g><path d="M 3.625 0 L 3.625 -24.921875 L 18.765625 -24.921875 L 18.765625 -22 L 6.765625 -22 L 6.765625 -14.125 L 17.875 -14.125 L 17.875 -11.25 L 6.765625 -11.25 L 6.765625 -2.921875 L 19.15625 -2.921875 L 19.15625 0 Z M 3.625 0 "/></g></g></g><g fill="#ffffff" fill-opacity="1"><g transform="translate(52.121886, 277.581004)"><g><path d="M 1.359375 0 L 10.25 -12.75 L 1.703125 -24.921875 L 5.453125 -24.921875 L 12.25 -15.09375 L 14.34375 -18.21875 L 19 -24.921875 L 22.671875 -24.921875 L 14.171875 -12.78125 L 23.09375 0 L 19.40625 0 L 14.3125 -7.375 L 12.25 -10.359375 L 5.09375 0 Z M 1.359375 0 "/></g></g></g><g fill="#ffffff" fill-opacity="1"><g transform="translate(92.690754, 277.581004)"><g><path d="M 3.625 0 L 3.625 -24.921875 L 12.0625 -24.921875 C 13.9375 -24.921875 15.566406 -24.570312 16.953125 -23.875 C 18.347656 -23.1875 19.425781 -22.21875 20.1875 -20.96875 C 20.945312 -19.726562 21.328125 -18.253906 21.328125 -16.546875 C 21.328125 -14.835938 20.945312 -13.359375 20.1875 -12.109375 C 19.425781 -10.867188 18.347656 -9.90625 16.953125 -9.21875 C 15.566406 -8.53125 13.9375 -8.1875 12.0625 -8.1875 L 6.765625 -8.1875 L 6.765625 0 Z M 6.765625 -11.109375 L 12 -11.109375 C 16.082031 -11.109375 18.125 -12.910156 18.125 -16.515625 C 18.125 -20.117188 16.082031 -21.921875 12 -21.921875 L 6.765625 -21.921875 Z M 6.765625 -11.109375 "/></g></g></g><g fill="#ffffff" fill-opacity="1"><g transform="translate(131.551828, 277.581004)"><g><path d="M 3.625 0 L 3.625 -24.921875 L 18.765625 -24.921875 L 18.765625 -22 L 6.765625 -22 L 6.765625 -14.125 L 17.875 -14.125 L 17.875 -11.25 L 6.765625 -11.25 L 6.765625 -2.921875 L 19.15625 -2.921875 L 19.15625 0 Z M 3.625 0 "/></g></g></g><g fill="#ffffff" fill-opacity="1"><g transform="translate(169.132054, 277.581004)"><g><path d="M 3.625 0 L 3.625 -24.921875 L 13.140625 -24.921875 C 14.867188 -24.921875 16.375 -24.59375 17.65625 -23.9375 C 18.9375 -23.28125 19.929688 -22.359375 20.640625 -21.171875 C 21.359375 -19.992188 21.71875 -18.570312 21.71875 -16.90625 C 21.71875 -14.882812 21.191406 -13.21875 20.140625 -11.90625 C 19.097656 -10.59375 17.664062 -9.707031 15.84375 -9.25 L 22.109375 0 L 18.328125 0 L 12.25 -8.9375 L 6.765625 -8.9375 L 6.765625 0 Z M 6.765625 -11.921875 L 12.78125 -11.921875 C 14.601562 -11.921875 16.015625 -12.351562 17.015625 -13.21875 C 18.015625 -14.082031 18.515625 -15.3125 18.515625 -16.90625 C 18.515625 -18.5 18.015625 -19.734375 17.015625 -20.609375 C 16.015625 -21.484375 14.601562 -21.921875 12.78125 -21.921875 L 6.765625 -21.921875 Z M 6.765625 -11.921875 "/></g></g></g><g fill="#ffffff" fill-opacity="1"><g transform="translate(209.487441, 277.581004)"><g><path d="M 9.640625 0 L 9.640625 -21.921875 L 1.203125 -21.921875 L 1.203125 -24.921875 L 21.171875 -24.921875 L 21.171875 -21.921875 L 12.78125 -21.921875 L 12.78125 0 Z M 9.640625 0 "/></g></g></g></svg>