<svg xmlns="http://www.w3.org/2000/svg" xmlns:xlink="http://www.w3.org/1999/xlink" width="30%" zoomAndPan="magnify" viewBox="0 0 375 374.999991"  preserveAspectRatio="xMidYMid meet" version="1.0"><defs><g/><clipPath id="8abc3263bf"><path d="M 208 114.898438 L 278 114.898438 L 278 180 L 208 180 Z M 208 114.898438 " clip-rule="nonzero"/></clipPath><clipPath id="4bfa025f3d"><path d="M 252.003906 183.289062 L 273.59375 183.289062 L 273.59375 204.640625 L 252.003906 204.640625 Z M 252.003906 183.289062 " clip-rule="nonzero"/></clipPath></defs><path fill="#ffffff" d="M 243.148438 157.398438 C 242.621094 157.398438 242.195312 156.96875 242.195312 156.445312 L 242.195312 149.609375 C 242.195312 149.082031 242.621094 148.65625 243.148438 148.65625 C 243.675781 148.65625 244.101562 149.082031 244.101562 149.609375 L 244.101562 156.445312 C 244.101562 156.96875 243.675781 157.398438 243.148438 157.398438 " fill-opacity="1" fill-rule="nonzero"/><path fill="#ffffff" d="M 243.148438 136.269531 C 242.621094 136.269531 242.195312 135.84375 242.195312 135.320312 L 242.195312 120.199219 C 242.195312 119.675781 242.621094 119.246094 243.148438 119.246094 C 243.675781 119.246094 244.101562 119.675781 244.101562 120.199219 L 244.101562 135.320312 C 244.101562 135.84375 243.675781 136.269531 243.148438 136.269531 " fill-opacity="1" fill-rule="nonzero"/><path fill="#ffffff" d="M 243.148438 150.5625 C 242.621094 150.5625 242.195312 150.132812 242.195312 149.609375 L 242.195312 139.628906 C 242.195312 139.101562 242.621094 138.675781 243.148438 138.675781 C 243.675781 138.675781 244.101562 139.101562 244.101562 139.628906 L 244.101562 149.609375 C 244.101562 150.132812 243.675781 150.5625 243.148438 150.5625 " fill-opacity="1" fill-rule="nonzero"/><path fill="#ffffff" d="M 256.25 132.519531 C 255.894531 132.519531 255.554688 132.320312 255.390625 131.976562 C 253.476562 127.980469 250.929688 124.34375 247.816406 121.171875 C 247.449219 120.796875 247.453125 120.195312 247.828125 119.824219 C 248.203125 119.457031 248.808594 119.460938 249.175781 119.835938 C 252.4375 123.160156 255.105469 126.96875 257.109375 131.15625 C 257.335938 131.628906 257.136719 132.199219 256.660156 132.425781 C 256.527344 132.488281 256.390625 132.519531 256.25 132.519531 " fill-opacity="1" fill-rule="nonzero"/><path fill="#ffffff" d="M 259.582031 142.699219 C 259.132812 142.699219 258.734375 142.378906 258.648438 141.925781 C 258.246094 139.8125 257.675781 137.722656 256.949219 135.707031 C 256.769531 135.210938 257.027344 134.667969 257.523438 134.488281 C 258.015625 134.308594 258.5625 134.566406 258.742188 135.0625 C 259.503906 137.167969 260.101562 139.359375 260.519531 141.566406 C 260.621094 142.085938 260.277344 142.582031 259.761719 142.683594 C 259.703125 142.695312 259.640625 142.699219 259.582031 142.699219 " fill-opacity="1" fill-rule="nonzero"/><path fill="#ffffff" d="M 257.777344 164.976562 C 257.667969 164.976562 257.558594 164.957031 257.449219 164.917969 C 256.953125 164.738281 256.699219 164.191406 256.882812 163.695312 C 258.53125 159.183594 259.371094 154.445312 259.371094 149.609375 C 259.371094 148.605469 259.332031 147.589844 259.257812 146.59375 C 259.21875 146.066406 259.613281 145.609375 260.140625 145.574219 C 260.664062 145.535156 261.121094 145.929688 261.160156 146.453125 C 261.238281 147.496094 261.277344 148.558594 261.277344 149.609375 C 261.277344 154.667969 260.398438 159.628906 258.671875 164.351562 C 258.53125 164.738281 258.164062 164.976562 257.777344 164.976562 " fill-opacity="1" fill-rule="nonzero"/><path fill="#ffffff" d="M 230.046875 132.519531 C 229.910156 132.519531 229.769531 132.488281 229.636719 132.425781 C 229.160156 132.199219 228.960938 131.628906 229.1875 131.15625 C 231.191406 126.96875 233.859375 123.160156 237.121094 119.835938 C 237.492188 119.460938 238.09375 119.457031 238.46875 119.824219 C 238.84375 120.195312 238.851562 120.796875 238.484375 121.171875 C 235.367188 124.34375 232.820312 127.980469 230.90625 131.976562 C 230.742188 132.320312 230.402344 132.519531 230.046875 132.519531 " fill-opacity="1" fill-rule="nonzero"/><path fill="#ffffff" d="M 226.71875 142.683594 C 226.660156 142.683594 226.597656 142.679688 226.539062 142.667969 C 226.023438 142.570312 225.683594 142.070312 225.78125 141.554688 C 226.199219 139.347656 226.796875 137.164062 227.554688 135.0625 C 227.734375 134.566406 228.28125 134.308594 228.773438 134.488281 C 229.269531 134.667969 229.527344 135.214844 229.347656 135.707031 C 228.625 137.71875 228.054688 139.804688 227.652344 141.910156 C 227.566406 142.367188 227.167969 142.683594 226.71875 142.683594 " fill-opacity="1" fill-rule="nonzero"/><path fill="#ffffff" d="M 228.523438 164.980469 C 228.132812 164.980469 227.769531 164.738281 227.628906 164.355469 C 225.898438 159.628906 225.023438 154.667969 225.023438 149.609375 C 225.023438 148.558594 225.0625 147.496094 225.136719 146.453125 C 225.175781 145.929688 225.636719 145.535156 226.15625 145.574219 C 226.683594 145.609375 227.078125 146.066406 227.039062 146.59375 C 226.964844 147.589844 226.929688 148.605469 226.929688 149.609375 C 226.929688 154.445312 227.765625 159.1875 229.417969 163.699219 C 229.597656 164.191406 229.34375 164.738281 228.851562 164.921875 C 228.742188 164.960938 228.632812 164.980469 228.523438 164.980469 " fill-opacity="1" fill-rule="nonzero"/><path fill="#ffffff" d="M 243.148438 129.03125 C 237.234375 129.03125 231.453125 127.929688 225.957031 125.761719 C 225.46875 125.566406 225.226562 125.011719 225.421875 124.523438 C 225.613281 124.035156 226.167969 123.792969 226.65625 123.988281 C 231.929688 126.070312 237.476562 127.125 243.148438 127.125 C 248.820312 127.125 254.367188 126.070312 259.636719 123.988281 C 260.125 123.792969 260.679688 124.035156 260.875 124.523438 C 261.066406 125.011719 260.828125 125.566406 260.335938 125.761719 C 254.84375 127.929688 249.058594 129.03125 243.148438 129.03125 " fill-opacity="1" fill-rule="nonzero"/><g clip-path="url(#8abc3263bf)"><path fill="#ffffff" d="M 225.730469 179.429688 C 225.5625 179.429688 225.394531 179.386719 225.238281 179.292969 C 220.222656 176.261719 216.023438 171.972656 213.097656 166.898438 C 210.078125 161.664062 208.484375 155.683594 208.484375 149.609375 C 208.484375 130.496094 224.035156 114.941406 243.148438 114.941406 C 262.261719 114.941406 277.8125 130.496094 277.8125 149.609375 C 277.8125 155.683594 276.21875 161.660156 273.203125 166.894531 C 270.277344 171.972656 266.078125 176.257812 261.0625 179.289062 C 260.613281 179.5625 260.027344 179.417969 259.753906 178.96875 C 259.480469 178.519531 259.625 177.933594 260.074219 177.660156 C 269.988281 171.664062 275.90625 161.179688 275.90625 149.609375 C 275.90625 131.542969 261.210938 116.851562 243.148438 116.851562 C 225.085938 116.851562 210.390625 131.542969 210.390625 149.609375 C 210.390625 161.179688 216.3125 171.667969 226.226562 177.660156 C 226.675781 177.933594 226.820312 178.519531 226.546875 178.96875 C 226.371094 179.265625 226.054688 179.429688 225.730469 179.429688 " fill-opacity="1" fill-rule="nonzero"/></g><path fill="#ffffff" d="M 266.320312 150.5625 L 219.976562 150.5625 C 219.449219 150.5625 219.023438 150.132812 219.023438 149.609375 C 219.023438 149.082031 219.449219 148.65625 219.976562 148.65625 L 266.320312 148.65625 C 266.847656 148.65625 267.277344 149.082031 267.277344 149.609375 C 267.277344 150.132812 266.847656 150.5625 266.320312 150.5625 " fill-opacity="1" fill-rule="nonzero"/><path fill="#ffffff" d="M 209.949219 171.390625 C 202.605469 171.390625 198.03125 169.699219 196.851562 166.457031 C 195.070312 161.554688 201.511719 155.644531 207.226562 151.550781 C 215 145.984375 226 140.472656 238.207031 136.03125 C 250.414062 131.585938 262.382812 128.738281 271.914062 128.003906 C 278.925781 127.46875 287.660156 127.855469 289.445312 132.757812 C 290.941406 136.867188 286.648438 142.582031 277.363281 148.851562 C 276.925781 149.148438 276.335938 149.03125 276.042969 148.59375 C 275.746094 148.160156 275.859375 147.566406 276.296875 147.273438 C 284.542969 141.707031 288.789062 136.527344 287.652344 133.410156 C 286.609375 130.546875 280.78125 129.238281 272.0625 129.90625 C 262.699219 130.625 250.90625 133.4375 238.859375 137.820312 C 226.8125 142.207031 215.972656 147.632812 208.335938 153.101562 C 201.226562 158.191406 197.601562 162.941406 198.644531 165.804688 C 199.78125 168.921875 206.363281 170.164062 216.253906 169.125 C 216.773438 169.070312 217.246094 169.449219 217.300781 169.972656 C 217.355469 170.496094 216.976562 170.964844 216.453125 171.019531 C 214.09375 171.269531 211.917969 171.390625 209.949219 171.390625 " fill-opacity="1" fill-rule="nonzero"/><path fill="#ffffff" d="M 276.351562 171.390625 C 274.378906 171.390625 272.207031 171.269531 269.84375 171.019531 C 269.320312 170.964844 268.941406 170.496094 268.996094 169.972656 C 269.050781 169.449219 269.519531 169.070312 270.042969 169.125 C 279.933594 170.164062 286.519531 168.921875 287.652344 165.804688 C 288.695312 162.941406 285.074219 158.191406 277.960938 153.101562 C 270.324219 147.632812 259.484375 142.207031 247.4375 137.820312 C 235.390625 133.4375 223.597656 130.625 214.238281 129.90625 C 205.515625 129.238281 199.6875 130.546875 198.644531 133.410156 C 197.511719 136.527344 201.757812 141.707031 210 147.273438 C 210.4375 147.566406 210.554688 148.160156 210.257812 148.59375 C 209.960938 149.03125 209.371094 149.148438 208.933594 148.851562 C 199.648438 142.585938 195.359375 136.867188 196.851562 132.757812 C 198.636719 127.855469 207.371094 127.46875 214.382812 128.003906 C 223.914062 128.738281 235.886719 131.585938 248.089844 136.03125 C 260.296875 140.472656 271.300781 145.984375 279.070312 151.550781 C 284.789062 155.644531 291.230469 161.554688 289.445312 166.457031 C 288.265625 169.699219 283.691406 171.390625 276.351562 171.390625 " fill-opacity="1" fill-rule="nonzero"/><g clip-path="url(#4bfa025f3d)"><path fill="#ffffff" d="M 268.957031 204.640625 C 267.808594 204.640625 266.65625 204.203125 265.78125 203.328125 L 252.378906 189.925781 C 252.007812 189.554688 252.007812 188.953125 252.378906 188.578125 C 252.753906 188.207031 253.355469 188.207031 253.726562 188.578125 L 267.128906 201.980469 C 268.136719 202.988281 269.777344 202.988281 270.789062 201.980469 C 271.277344 201.492188 271.542969 200.839844 271.542969 200.148438 C 271.542969 199.457031 271.277344 198.808594 270.789062 198.320312 L 257.386719 184.921875 C 257.015625 184.546875 257.015625 183.945312 257.386719 183.574219 C 257.757812 183.199219 258.363281 183.199219 258.734375 183.574219 L 272.132812 196.972656 C 272.984375 197.820312 273.449219 198.949219 273.449219 200.148438 C 273.449219 201.351562 272.984375 202.476562 272.132812 203.328125 C 271.257812 204.203125 270.109375 204.640625 268.957031 204.640625 " fill-opacity="1" fill-rule="nonzero"/></g><path fill="#ffffff" d="M 243.148438 198.640625 C 232.679688 198.640625 223.414062 191.960938 220.09375 182.015625 C 219.929688 181.519531 220.195312 180.980469 220.695312 180.8125 C 221.195312 180.644531 221.734375 180.914062 221.902344 181.414062 C 224.960938 190.578125 233.5 196.734375 243.148438 196.734375 C 243.675781 196.734375 244.101562 197.160156 244.101562 197.6875 C 244.101562 198.214844 243.675781 198.640625 243.148438 198.640625 " fill-opacity="1" fill-rule="nonzero"/><path fill="#ffffff" d="M 243.148438 157.398438 C 233.804688 157.398438 226.207031 165 226.207031 174.34375 C 226.207031 183.6875 233.804688 191.289062 243.148438 191.289062 C 252.496094 191.289062 260.09375 183.6875 260.09375 174.34375 C 260.09375 165 252.496094 157.398438 243.148438 157.398438 Z M 243.148438 193.195312 C 232.753906 193.195312 224.296875 184.738281 224.296875 174.34375 C 224.296875 163.949219 232.753906 155.492188 243.148438 155.492188 C 253.542969 155.492188 262.003906 163.949219 262.003906 174.34375 C 262.003906 184.738281 253.542969 193.195312 243.148438 193.195312 " fill-opacity="1" fill-rule="nonzero"/><path fill="#ffffff" d="M 229.996094 172.078125 C 229.921875 172.078125 229.84375 172.070312 229.769531 172.050781 C 229.257812 171.925781 228.945312 171.410156 229.070312 170.898438 C 230.03125 166.972656 232.621094 163.597656 236.179688 161.636719 C 236.640625 161.382812 237.21875 161.550781 237.472656 162.011719 C 237.726562 162.472656 237.558594 163.054688 237.097656 163.308594 C 234.007812 165.011719 231.757812 167.941406 230.921875 171.351562 C 230.816406 171.785156 230.425781 172.078125 229.996094 172.078125 " fill-opacity="1" fill-rule="nonzero"/><path fill="#ffffff" d="M 243.148438 179.949219 C 242.625 179.949219 242.199219 179.523438 242.199219 178.996094 L 242.199219 178.539062 C 242.199219 176.367188 243.253906 174.398438 245.027344 173.273438 C 246.113281 172.589844 246.738281 171.363281 246.65625 170.078125 C 246.550781 168.347656 245.109375 166.90625 243.378906 166.800781 C 242.390625 166.738281 241.457031 167.074219 240.746094 167.746094 C 240.03125 168.414062 239.636719 169.324219 239.636719 170.304688 C 239.636719 170.832031 239.210938 171.257812 238.683594 171.257812 C 238.15625 171.257812 237.730469 170.832031 237.730469 170.304688 C 237.730469 168.816406 238.355469 167.375 239.4375 166.355469 C 240.539062 165.320312 241.980469 164.800781 243.496094 164.898438 C 246.210938 165.066406 248.390625 167.242188 248.558594 169.960938 C 248.683594 171.9375 247.71875 173.828125 246.050781 174.886719 C 244.847656 175.648438 244.101562 177.046875 244.101562 178.539062 L 244.101562 178.996094 C 244.101562 179.523438 243.675781 179.949219 243.148438 179.949219 " fill-opacity="1" fill-rule="nonzero"/><path fill="#ffffff" d="M 243.148438 183.800781 C 242.625 183.800781 242.199219 183.371094 242.199219 182.847656 L 242.199219 182.371094 C 242.199219 181.84375 242.625 181.417969 243.148438 181.417969 C 243.675781 181.417969 244.101562 181.84375 244.101562 182.371094 L 244.101562 182.847656 C 244.101562 183.371094 243.675781 183.800781 243.148438 183.800781 " fill-opacity="1" fill-rule="nonzero"/><path stroke-linecap="butt" transform="matrix(0.75, 0, 0, 0.75, 88.725767, 94.361214)" fill="none" stroke-linejoin="miter" d="M 49.303148 55.997552 C 47.292731 54.789219 45.214606 53.716302 43.073981 52.78401 C 41.277105 51.981927 39.251064 51.231927 36.995855 50.528802 C 34.756272 49.825677 32.568772 49.476718 30.422938 49.476718 C 28.693771 49.476718 27.303146 49.742343 26.256271 50.28401 C 25.225021 50.804843 24.714604 51.705885 24.714604 52.981927 C 24.714604 53.929843 25.006271 54.705885 25.594813 55.310052 C 26.198979 55.898594 27.07398 56.445469 28.219813 56.950677 C 29.360438 57.461094 30.751063 57.950677 32.38648 58.424635 C 34.021897 58.882969 35.876063 59.445469 37.954189 60.117344 C 41.235439 61.112136 44.204189 62.216302 46.850023 63.424636 C 49.501064 64.632969 51.756273 66.065261 53.615648 67.716303 C 55.495856 69.351719 56.933357 71.336095 57.933357 73.674636 C 58.943773 76.00797 59.45419 78.85172 59.45419 82.205887 C 59.45419 86.487137 58.662523 90.091304 57.073982 93.018388 C 55.506273 95.924638 53.428148 98.252763 50.850023 100.002763 C 48.282314 101.737138 45.370856 102.987138 42.120856 103.752763 C 38.881272 104.523597 35.620855 104.909013 32.339605 104.909013 C 29.719813 104.909013 27.04273 104.70068 24.297938 104.29443 C 21.547938 103.903805 18.818771 103.336097 16.105229 102.601722 C 13.41252 101.867347 10.803145 101.002763 8.28752 100.002763 C 5.771895 98.992346 3.438561 97.846513 1.297936 96.570471 L 9.735437 79.38297 C 12.084395 80.872554 14.532312 82.179845 17.063562 83.310054 C 19.204187 84.32047 21.631271 85.226721 24.344813 86.028804 C 27.058355 86.830887 29.818771 87.231929 32.631272 87.231929 C 34.771897 87.231929 36.26148 86.945471 37.094814 86.372554 C 37.943772 85.799637 38.370855 85.049637 38.370855 84.117345 C 38.370855 83.122554 37.943772 82.268387 37.094814 81.565262 C 36.26148 80.862137 35.10523 80.242345 33.63648 79.705887 C 32.16773 79.16422 30.475021 78.627762 28.563563 78.086095 C 26.66773 77.544428 24.646896 76.909012 22.506271 76.174637 C 19.350021 75.112137 16.631271 73.961095 14.344812 72.716303 C 12.06877 71.47672 10.198978 70.07047 8.730228 68.497553 C 7.25627 66.929844 6.167728 65.143386 5.464603 63.132969 C 4.766686 61.122552 4.41252 58.810052 4.41252 56.19026 C 4.41252 52.25276 5.13127 48.778801 6.56877 45.773593 C 8.00627 42.747551 9.959395 40.231926 12.428145 38.221509 C 14.91252 36.211092 17.751062 34.690259 20.938562 33.664217 C 24.126063 32.617342 27.490646 32.0913 31.037521 32.0913 C 33.63648 32.0913 36.178147 32.346509 38.662522 32.851717 C 41.146897 33.356925 43.542731 33.99755 45.844814 34.763176 C 48.152106 35.534009 50.308356 36.372551 52.318773 37.289217 C 54.32919 38.190259 56.136481 39.039217 57.73544 39.841301 Z M 132.136486 86.935054 L 132.136486 103.997555 L 81.3344 103.997555 L 81.3344 32.705884 L 131.25107 32.705884 L 131.25107 49.768385 L 100.922943 49.768385 L 100.922943 59.820469 L 126.813569 59.820469 L 126.813569 75.685053 L 100.922943 75.685053 L 100.922943 86.935054 Z M 132.136486 86.935054 " stroke="#ffffff" stroke-width="2.5106" stroke-opacity="1" stroke-miterlimit="4"/><g fill="#ffffff" fill-opacity="1"><g transform="translate(91.800796, 199.102559)"><g><path d="M 2.015625 0 L 2.015625 -13.78125 L 10.375 -13.78125 L 10.375 -12.171875 L 3.734375 -12.171875 L 3.734375 -7.8125 L 9.890625 -7.8125 L 9.890625 -6.21875 L 3.734375 -6.21875 L 3.734375 -1.609375 L 10.59375 -1.609375 L 10.59375 0 Z M 2.015625 0 "/></g></g></g><g fill="#ffffff" fill-opacity="1"><g transform="translate(112.594229, 199.102559)"><g><path d="M 0.75 0 L 5.671875 -7.046875 L 0.9375 -13.78125 L 3.015625 -13.78125 L 6.765625 -8.34375 L 7.9375 -10.078125 L 10.515625 -13.78125 L 12.546875 -13.78125 L 7.828125 -7.0625 L 12.78125 0 L 10.734375 0 L 7.921875 -4.078125 L 6.765625 -5.734375 L 2.8125 0 Z M 0.75 0 "/></g></g></g><g fill="#ffffff" fill-opacity="1"><g transform="translate(135.041301, 199.102559)"><g><path d="M 2.015625 0 L 2.015625 -13.78125 L 6.671875 -13.78125 C 7.710938 -13.78125 8.613281 -13.585938 9.375 -13.203125 C 10.144531 -12.828125 10.738281 -12.296875 11.15625 -11.609375 C 11.582031 -10.921875 11.796875 -10.101562 11.796875 -9.15625 C 11.796875 -8.207031 11.582031 -7.390625 11.15625 -6.703125 C 10.738281 -6.015625 10.144531 -5.476562 9.375 -5.09375 C 8.613281 -4.71875 7.710938 -4.53125 6.671875 -4.53125 L 3.734375 -4.53125 L 3.734375 0 Z M 3.734375 -6.140625 L 6.640625 -6.140625 C 8.890625 -6.140625 10.015625 -7.140625 10.015625 -9.140625 C 10.015625 -11.128906 8.890625 -12.125 6.640625 -12.125 L 3.734375 -12.125 Z M 3.734375 -6.140625 "/></g></g></g><g fill="#ffffff" fill-opacity="1"><g transform="translate(156.543437, 199.102559)"><g><path d="M 2.015625 0 L 2.015625 -13.78125 L 10.375 -13.78125 L 10.375 -12.171875 L 3.734375 -12.171875 L 3.734375 -7.8125 L 9.890625 -7.8125 L 9.890625 -6.21875 L 3.734375 -6.21875 L 3.734375 -1.609375 L 10.59375 -1.609375 L 10.59375 0 Z M 2.015625 0 "/></g></g></g><g fill="#ffffff" fill-opacity="1"><g transform="translate(177.33687, 199.102559)"><g><path d="M 2.015625 0 L 2.015625 -13.78125 L 7.265625 -13.78125 C 8.222656 -13.78125 9.054688 -13.597656 9.765625 -13.234375 C 10.472656 -12.878906 11.023438 -12.375 11.421875 -11.71875 C 11.816406 -11.0625 12.015625 -10.269531 12.015625 -9.34375 C 12.015625 -8.226562 11.722656 -7.304688 11.140625 -6.578125 C 10.566406 -5.859375 9.773438 -5.375 8.765625 -5.125 L 12.21875 0 L 10.140625 0 L 6.765625 -4.9375 L 3.734375 -4.9375 L 3.734375 0 Z M 3.734375 -6.59375 L 7.0625 -6.59375 C 8.070312 -6.59375 8.851562 -6.832031 9.40625 -7.3125 C 9.957031 -7.789062 10.234375 -8.46875 10.234375 -9.34375 C 10.234375 -10.226562 9.957031 -10.910156 9.40625 -11.390625 C 8.851562 -11.878906 8.070312 -12.125 7.0625 -12.125 L 3.734375 -12.125 Z M 3.734375 -6.59375 "/></g></g></g><g fill="#ffffff" fill-opacity="1"><g transform="translate(199.665821, 199.102559)"><g><path d="M 5.328125 0 L 5.328125 -12.125 L 0.671875 -12.125 L 0.671875 -13.78125 L 11.71875 -13.78125 L 11.71875 -12.125 L 7.0625 -12.125 L 7.0625 0 Z M 5.328125 0 "/></g></g></g></svg>